<svg width="102" height="30" fill="none" xmlns="http://www.w3.org/2000/svg"><path fill-rule="evenodd" clip-rule="evenodd" d="M12 0c6.63 0 12 5.37 12 12v10.5c0 .83-.67 1.5-1.5 1.5s-1.5-.67-1.5-1.5v-2.56C18.8 22.43 15.58 24 12 24 5.37 24 0 18.63 0 12S5.37 0 12 0Zm0 3a9 9 0 1 1-.001 18.001A9 9 0 0 1 12 3Z" fill="#fff"/><path d="M66 0c3.31 0 6.31 1.34 8.48 3.51l.01.01c.58.58.58 1.53 0 2.12-.59.58-1.54.58-2.13 0A8.937 8.937 0 0 0 66 3a9 9 0 1 0 6.36 15.37c.59-.59 1.54-.59 2.13 0 .58.58.58 1.53 0 2.12A11.997 11.997 0 0 1 66 24c-6.63 0-12-5.37-12-12S59.37 0 66 0Z" fill="#fff"/><path fill-rule="evenodd" clip-rule="evenodd" d="M27 12c0-6.63 5.37-12 12-12s12 5.37 12 12-5.37 12-12 12c-3.58 0-6.8-1.57-9-4.06v8.56c0 .83-.67 1.5-1.5 1.5s-1.5-.67-1.5-1.5V12Zm3 0a9 9 0 1 1 18.001.001A9 9 0 0 1 30 12Z" fill="#fff"/><path d="M61.5 10.47h6c.83 0 1.5.67 1.5 1.5s-.67 1.5-1.5 1.5h-6c-.83 0-1.5-.67-1.5-1.5s.67-1.5 1.5-1.5ZM78 1.95c0 4.53 2.51 8.48 6.22 10.52-3.55 1.96-6.01 5.67-6.21 9.96-.03.63.32 1.19.89 1.44.58.26 1.22.14 1.67-.3.26-.26.42-.61.44-1A8.997 8.997 0 0 1 90 13.99c4.83 0 8.77 3.8 8.99 8.58.02.39.19.74.44 1 .45.44 1.09.56 1.67.3.57-.25.92-.81.89-1.44-.2-4.29-2.65-8-6.21-9.96C99.49 10.43 102 6.48 102 1.95c0-.17 0-.34-.01-.51a1.5 1.5 0 0 0-1.5-1.44c-.42 0-.79.16-1.08.46-.3.31-.44.68-.42 1.11.01.12.01.25.01.38a9 9 0 0 1-18 0c0-.13 0-.26.01-.38.02-.43-.12-.8-.42-1.11-.29-.3-.66-.46-1.08-.46-.8 0-1.46.63-1.5 1.44-.01.17-.01.34-.01.51Z" fill="#fff"/></svg>